<?xml version="1.0" encoding="UTF-8"?>
<!DOCTYPE svg PUBLIC "-//W3C//DTD SVG 1.1//EN" "http://www.w3.org/Graphics/SVG/1.1/DTD/svg11.dtd">
<svg xmlns="http://www.w3.org/2000/svg" version="1.1" width="1224px" height="832px" style="shape-rendering:geometricPrecision; text-rendering:geometricPrecision; image-rendering:optimizeQuality; fill-rule:evenodd; clip-rule:evenodd" xmlns:xlink="http://www.w3.org/1999/xlink">
<g><path style="opacity:1" fill="#fefefe" d="M -0.5,-0.5 C 407.5,-0.5 815.5,-0.5 1223.5,-0.5C 1223.5,276.833 1223.5,554.167 1223.5,831.5C 815.5,831.5 407.5,831.5 -0.5,831.5C -0.5,554.167 -0.5,276.833 -0.5,-0.5 Z"/></g>
<g><path style="opacity:1" fill="#090909" d="M 445.5,247.5 C 446.873,247.343 448.207,247.51 449.5,248C 452,250.5 454.5,253 457,255.5C 459.557,262.63 461.224,269.964 462,277.5C 465.506,331.559 465.173,385.559 461,439.5C 459.433,458.302 454.099,475.969 445,492.5C 441.751,496.936 437.585,499.936 432.5,501.5C 430.133,501.158 427.8,500.658 425.5,500C 421,495.5 416.5,491 412,486.5C 404.68,474.533 397.346,462.533 390,450.5C 367.751,399.418 351.751,346.418 342,291.5C 336.283,279.209 337.95,277.876 347,287.5C 347.588,291.806 348.921,295.806 351,299.5C 360.73,354.359 376.73,407.359 399,458.5C 404.814,468.262 410.814,477.929 417,487.5C 419.264,491.882 422.764,493.382 427.5,492C 431.667,489.167 435.167,485.667 438,481.5C 445.935,463.345 450.935,444.345 453,424.5C 457.56,376.817 457.56,329.151 453,281.5C 451,279.5 449,277.5 447,275.5C 445.818,266.204 445.318,256.87 445.5,247.5 Z"/></g>
<g><path style="opacity:1" fill="#0c0c0c" d="M 238.5,469.5 C 237.596,470.209 237.263,471.209 237.5,472.5C 244.687,472.825 251.687,472.491 258.5,471.5C 267.461,470.529 276.294,468.863 285,466.5C 288.699,468.184 291.865,470.684 294.5,474C 290.624,474.881 286.958,476.214 283.5,478C 267.274,479.872 250.941,481.038 234.5,481.5C 227.278,505.994 219.778,530.328 212,554.5C 211.586,554.957 211.086,555.291 210.5,555.5C 208.183,553.684 206.016,551.684 204,549.5C 203.333,546.833 203.333,544.167 204,541.5C 210.745,522.261 216.912,502.761 222.5,483C 216.589,483.259 212.256,480.759 209.5,475.5C 211.833,474.833 214.167,474.167 216.5,473.5C 219.761,472.622 223.094,471.956 226.5,471.5C 236.22,437.952 244.053,403.952 250,369.5C 251.331,364.85 252.665,360.183 254,355.5C 256.668,337.497 259.335,319.497 262,301.5C 263.334,296.162 264.667,290.828 266,285.5C 267.049,284.483 268.216,284.316 269.5,285C 271.667,287.167 273.833,289.333 276,291.5C 280.827,319.977 286.161,348.31 292,376.5C 297.487,417.111 305.82,457.111 317,496.5C 323.076,511.614 328.743,526.947 334,542.5C 334.499,547.155 334.666,551.821 334.5,556.5C 330.139,555.83 326.805,553.497 324.5,549.5C 325.614,544.554 325.781,539.554 325,534.5C 319.743,518.947 314.076,503.614 308,488.5C 301.957,465.959 296.29,443.292 291,420.5C 285.279,383.023 278.946,345.689 272,308.5C 262.958,362.54 251.791,416.207 238.5,469.5 Z"/></g>
<g><path style="opacity:1" fill="#262626" d="M 496.5,378.5 C 497.721,377.535 499.054,377.702 500.5,379C 505.501,382.888 509.168,387.722 511.5,393.5C 511.167,393.833 510.833,394.167 510.5,394.5C 507.849,392.35 505.349,390.017 503,387.5C 501.386,384.06 499.22,381.06 496.5,378.5 Z"/></g>
<g><path style="opacity:1" fill="#0f0f0f" d="M 628.5,424.5 C 628.44,423.957 628.107,423.624 627.5,423.5C 626.192,427.315 626.192,430.981 627.5,434.5C 631.601,454.696 637.434,474.362 645,493.5C 649.069,497.119 653.236,497.285 657.5,494C 659.377,491.749 660.877,489.249 662,486.5C 664.214,482.064 665.88,477.397 667,472.5C 668.885,459.86 670.551,447.193 672,434.5C 672.973,423.688 672.14,413.021 669.5,402.5C 669.733,401.068 670.4,400.568 671.5,401C 674,403.5 676.5,406 679,408.5C 685.432,436.774 697.098,462.774 714,486.5C 719.423,489.919 724.256,494.085 728.5,499C 719.674,495.537 712.507,489.703 707,481.5C 696.976,467.724 688.643,453.057 682,437.5C 680.218,451.525 678.218,465.525 676,479.5C 675.079,484.801 673.413,489.801 671,494.5C 667.443,504.366 660.943,507.199 651.5,503C 645.967,497.802 640.8,492.302 636,486.5C 627.447,465.471 621.281,443.638 617.5,421C 617.017,415.509 619.35,412.509 624.5,412C 630.416,417.017 634.416,423.183 636.5,430.5C 636.167,430.833 635.833,431.167 635.5,431.5C 632.812,429.479 630.479,427.146 628.5,424.5 Z"/></g>
<g><path style="opacity:1" fill="#0c0c0c" d="M 740.5,405.5 C 745.012,407.497 748.845,410.497 752,414.5C 760.412,425.653 768.079,437.32 775,449.5C 783.813,434.895 794.313,421.562 806.5,409.5C 808.074,408.369 809.741,408.202 811.5,409C 814.922,411.719 817.422,414.886 819,418.5C 817.951,417.483 816.784,417.316 815.5,418C 802.187,430.635 791.187,444.968 782.5,461C 788.218,471.601 795.052,481.435 803,490.5C 803.718,489.549 804.551,489.383 805.5,490C 807.667,492.167 809.833,494.333 812,496.5C 811.811,499.831 810.311,500.331 807.5,498C 803.333,493.833 799.167,489.667 795,485.5C 790.399,478.619 785.566,471.952 780.5,465.5C 771.483,477.525 764.149,490.525 758.5,504.5C 756.183,502.684 754.016,500.684 752,498.5C 751.333,495.833 751.333,493.167 752,490.5C 758.681,478.311 765.514,466.144 772.5,454C 767.12,444.07 761.62,434.237 756,424.5C 750.976,417.983 745.809,411.65 740.5,405.5 Z"/></g>
<g><path style="opacity:1" fill="#0c0c0c" d="M 571.5,414.5 C 574.187,414.336 576.854,414.503 579.5,415C 584.415,419.244 588.581,424.077 592,429.5C 593.889,439.298 593.222,448.965 590,458.5C 586.275,466.21 581.775,473.376 576.5,480C 577.462,485.844 579.296,491.344 582,496.5C 586.623,501.021 592.123,502.521 598.5,501C 600.948,499.388 603.615,498.721 606.5,499C 608.833,501.333 611.167,503.667 613.5,506C 610.918,506.896 608.584,508.229 606.5,510C 600.833,510.891 595.499,509.891 590.5,507C 582.494,500.172 575.827,492.339 570.5,483.5C 561.719,492.145 554.052,491.145 547.5,480.5C 550.71,480.461 554.043,479.961 557.5,479C 560.333,476.833 563.167,474.667 566,472.5C 564.658,458.224 564.324,443.891 565,429.5C 565.333,427.5 565.667,425.5 566,423.5C 567.657,420.354 569.491,417.354 571.5,414.5 Z"/></g>
<g><path style="opacity:1" fill="#f6f6f6" d="M 574.5,462.5 C 573.51,456.69 573.177,450.69 573.5,444.5C 573.531,438.648 574.531,432.981 576.5,427.5C 581.732,421.541 584.399,422.541 584.5,430.5C 584.245,442.204 580.911,452.871 574.5,462.5 Z"/></g>
<g><path style="opacity:1" fill="#7f7f7f" d="M 628.5,424.5 C 627.521,427.625 627.187,430.958 627.5,434.5C 626.192,430.981 626.192,427.315 627.5,423.5C 628.107,423.624 628.44,423.957 628.5,424.5 Z"/></g>
<g><path style="opacity:1" fill="#101010" d="M 492.5,427.5 C 495.731,429.22 498.564,431.553 501,434.5C 504.858,453.354 509.525,472.021 515,490.5C 516.112,496.494 516.779,502.494 517,508.5C 514.333,505.833 511.667,503.167 509,500.5C 507.784,494.536 506.784,488.536 506,482.5C 500.349,464.434 495.849,446.101 492.5,427.5 Z"/></g>
<g><path style="opacity:1" fill="#797979" d="M 573.5,444.5 C 573.177,450.69 573.51,456.69 574.5,462.5C 574.44,463.043 574.107,463.376 573.5,463.5C 572.183,457.012 572.183,450.678 573.5,444.5 Z"/></g>
<g><path style="opacity:1" fill="#6c6c6c" d="M 238.5,469.5 C 244.75,471.459 251.416,472.126 258.5,471.5C 251.687,472.491 244.687,472.825 237.5,472.5C 237.263,471.209 237.596,470.209 238.5,469.5 Z"/></g>
<g><path style="opacity:1" fill="#5d5d5d" d="M 216.5,473.5 C 214.167,474.167 211.833,474.833 209.5,475.5C 208.957,475.44 208.624,475.107 208.5,474.5C 211.086,473.52 213.753,473.187 216.5,473.5 Z"/></g>
<g><path style="opacity:1" fill="#646464" d="M 372.5,504.5 C 370.167,504.5 367.833,504.5 365.5,504.5C 365.737,505.791 365.404,506.791 364.5,507.5C 364.5,506.167 364.5,504.833 364.5,503.5C 367.385,503.194 370.052,503.527 372.5,504.5 Z"/></g>
<g><path style="opacity:1" fill="#0d0d0d" d="M 372.5,504.5 C 380.438,508.409 381.438,513.576 375.5,520C 373.5,520.667 371.5,520.667 369.5,520C 367,517.5 364.5,515 362,512.5C 361.51,511.207 361.343,509.873 361.5,508.5C 362.791,508.737 363.791,508.404 364.5,507.5C 365.404,506.791 365.737,505.791 365.5,504.5C 367.833,504.5 370.167,504.5 372.5,504.5 Z"/></g>
</svg>
